<svg width="2000" height="429" viewBox="0 0 2000 429" fill="none" xmlns="http://www.w3.org/2000/svg">
<g clip-path="url(#clip0_520_1412)">
<g clip-path="url(#clip1_520_1412)">
<g clip-path="url(#clip2_520_1412)">
<g clip-path="url(#clip3_520_1412)">
<path d="M1427.16 49.7698C1427.16 38.745 1420.97 29.8076 1413.33 29.8076C1405.7 29.8076 1399.51 38.745 1399.51 49.7698V377.73C1399.51 388.754 1405.7 397.692 1413.33 397.692C1420.97 397.692 1427.16 388.754 1427.16 377.73V49.7698Z" fill="white"/>
<g clip-path="url(#clip4_520_1412)">
<g clip-path="url(#clip5_520_1412)">
<g clip-path="url(#clip6_520_1412)">
<g clip-path="url(#clip7_520_1412)">
<path d="M43.1714 60.4647V98.8863H0.733551V60.4647H43.1714ZM43.1714 135.166V311.812H0.733551V135.166H43.1714ZM241.572 194.673V311.812H199.067V194.673C199.067 189.095 197.594 184.855 194.649 181.955C191.704 179.099 187.353 177.671 181.597 177.671H126.374V311.812H83.8689V156.251C83.8689 153.306 84.4044 150.539 85.4754 147.951C86.591 145.407 88.1306 143.176 90.0941 141.257C92.0575 139.383 94.3334 137.888 96.9216 136.772C99.5544 135.702 102.343 135.166 105.289 135.166H181.931C187.822 135.166 194.136 136.192 200.874 138.245C207.613 140.342 214.039 143.667 220.152 148.219V135.166H277.718C281.734 135.166 285.973 135.635 290.436 136.572C294.898 137.464 299.338 138.892 303.756 140.856C308.174 142.819 312.391 145.363 316.407 148.486C320.423 151.566 323.971 155.314 327.05 159.732C330.084 164.15 332.539 169.259 334.413 175.06C336.243 180.817 337.157 187.354 337.157 194.673V311.812H294.653V194.673C294.653 189.095 293.269 184.855 290.503 181.955C287.736 179.099 283.474 177.671 277.718 177.671H239.43C240.858 182.892 241.572 188.559 241.572 194.673ZM570.03 60.4647V252.171C570.03 259.445 569.093 266.005 567.219 271.851C565.389 277.697 562.957 282.828 559.923 287.246C556.844 291.619 553.296 295.368 549.28 298.492C545.264 301.615 541.047 304.159 536.629 306.122C532.211 308.041 527.749 309.469 523.241 310.406C518.69 311.343 514.406 311.812 510.39 311.812H433.747C426.429 311.812 419.891 310.875 414.135 309.001C408.333 307.171 403.246 304.694 398.873 301.571C394.455 298.492 390.684 294.922 387.561 290.861C384.482 286.845 381.96 282.628 379.997 278.21C378.033 273.792 376.583 269.329 375.646 264.822C374.709 260.315 374.24 256.098 374.24 252.171V194.673C374.24 183.74 376.226 174.502 380.198 166.961C384.169 159.375 389.123 153.217 395.058 148.486C401.037 143.756 407.508 140.342 414.469 138.245C421.431 136.192 427.857 135.166 433.747 135.166H510.39V177.671H434.082C428.414 177.671 424.108 179.099 421.163 181.955C418.218 184.855 416.745 189.095 416.745 194.673V251.837C416.745 257.593 418.195 261.944 421.096 264.889C423.952 267.835 428.169 269.307 433.747 269.307H510.39C516.146 269.307 520.452 267.835 523.308 264.889C526.12 261.944 527.525 257.705 527.525 252.171V60.4647H570.03ZM776.262 135.166H821.378C816.558 150.071 810.935 164.774 804.509 179.277C798.084 193.78 790.698 207.592 782.353 220.711C774.053 233.831 764.749 245.969 754.441 257.125C744.133 268.325 732.753 277.964 720.303 286.041C707.808 294.163 694.242 300.544 679.606 305.185C664.924 309.826 649.038 312.147 631.947 312.147C629.001 312.147 626.235 311.589 623.646 310.473C621.014 309.402 618.715 307.907 616.752 305.988C614.789 304.114 613.271 301.883 612.2 299.295C611.085 296.751 610.527 294.007 610.527 291.062V135.166H653.032V268.035C663.385 268.035 673.336 265.804 682.885 261.342C692.39 256.879 701.405 250.967 709.928 243.603C718.407 236.24 726.26 227.873 733.49 218.502C740.763 209.131 747.234 199.514 752.901 189.652C758.569 179.79 763.388 170.129 767.36 160.669C771.331 151.164 774.299 142.663 776.262 135.166ZM914.152 269.307V311.812H895.209C889.095 311.812 882.58 310.786 875.663 308.733C868.746 306.636 862.298 303.222 856.318 298.492C850.339 293.761 845.385 287.603 841.458 280.017C837.532 272.431 835.568 263.149 835.568 252.171V60.4647H878.073V252.171C878.073 257.392 879.702 261.565 882.959 264.689C886.217 267.768 890.3 269.307 895.209 269.307H914.152ZM1136.25 194.673V252.171C1136.25 259.445 1135.31 266.005 1133.44 271.851C1131.61 277.697 1129.15 282.828 1126.07 287.246C1123.04 291.619 1119.51 295.368 1115.5 298.492C1111.44 301.615 1107.2 304.159 1102.78 306.122C1098.41 308.041 1093.97 309.469 1089.46 310.406C1085 311.343 1080.76 311.812 1076.74 311.812H1000.1V269.307H1076.74C1082.41 269.307 1086.65 267.835 1089.46 264.889C1092.31 261.944 1093.74 257.705 1093.74 252.171V194.94C1093.74 189.095 1092.29 184.744 1089.39 181.888C1086.54 179.076 1082.32 177.671 1076.74 177.671H1000.43C994.632 177.671 990.281 179.099 987.381 181.955C984.435 184.855 982.963 189.095 982.963 194.673V367.035H940.458V194.673C940.458 187.354 941.373 180.817 943.202 175.06C945.077 169.259 947.553 164.15 950.632 159.732C953.756 155.314 957.326 151.566 961.342 148.486C965.403 145.363 969.642 142.819 974.06 140.856C978.433 138.892 982.896 137.464 987.448 136.572C991.955 135.635 996.172 135.166 1000.1 135.166H1076.74C1084.06 135.166 1090.6 136.081 1096.35 137.91C1102.11 139.785 1107.2 142.239 1111.62 145.273C1116.03 148.353 1119.8 151.9 1122.93 155.916C1126.01 159.933 1128.53 164.15 1130.49 168.567C1132.45 172.985 1133.9 177.425 1134.84 181.888C1135.78 186.35 1136.25 190.612 1136.25 194.673ZM1327.08 135.166V177.671H1231.5C1225.7 177.671 1221.32 179.099 1218.38 181.955C1215.48 184.855 1214.03 189.095 1214.03 194.673V311.812H1171.52V194.673C1171.52 187.354 1172.44 180.817 1174.27 175.06C1176.14 169.259 1178.62 164.15 1181.7 159.732C1184.82 155.314 1188.39 151.566 1192.41 148.486C1196.47 145.363 1200.71 142.819 1205.13 140.856C1209.5 138.892 1213.96 137.464 1218.51 136.572C1223.02 135.635 1227.24 135.166 1231.16 135.166H1327.08Z" fill="white"/>
</g>
</g>
</g>
</g>
<g clip-path="url(#clip8_520_1412)">
<g clip-path="url(#clip9_520_1412)">
<path d="M1987.68 1.90976H1508.74C1506.3 1.90976 1503.96 2.88014 1502.23 4.60743C1500.5 6.33473 1499.53 8.67743 1499.53 11.1202V342.696C1499.53 345.139 1500.5 347.481 1502.23 349.209C1503.96 350.936 1506.3 351.906 1508.74 351.906H1739V407.169H1656.11C1653.67 407.169 1651.32 408.139 1649.6 409.866C1647.87 411.594 1646.9 413.936 1646.9 416.379C1646.9 418.822 1647.87 421.165 1649.6 422.892C1651.32 424.619 1653.67 425.59 1656.11 425.59H1840.32C1842.76 425.59 1845.1 424.619 1846.83 422.892C1848.56 421.165 1849.53 418.822 1849.53 416.379C1849.53 413.936 1848.56 411.594 1846.83 409.866C1845.1 408.139 1842.76 407.169 1840.32 407.169H1757.42V351.906H1987.68C1990.13 351.906 1992.47 350.936 1994.2 349.209C1995.92 347.481 1996.89 345.139 1996.89 342.696V11.1202C1996.89 8.67743 1995.92 6.33473 1994.2 4.60743C1992.47 2.88014 1990.13 1.90976 1987.68 1.90976ZM1978.47 333.485H1517.95V20.3306H1978.47V333.485Z" fill="white"/>
<path d="M1714.07 201.841C1714.92 202.699 1715.94 203.38 1717.05 203.845C1718.17 204.31 1719.37 204.549 1720.58 204.549C1721.79 204.549 1722.99 204.31 1724.11 203.845C1725.23 203.38 1726.24 202.699 1727.09 201.841C1728.82 200.113 1729.79 197.771 1729.79 195.329C1729.79 192.887 1728.82 190.544 1727.09 188.817L1715.18 176.908L1727.09 164.999C1728.82 163.272 1729.79 160.93 1729.79 158.487C1729.79 156.045 1728.82 153.702 1727.09 151.975C1725.37 150.248 1723.02 149.278 1720.58 149.278C1718.14 149.278 1715.8 150.248 1714.07 151.975L1695.65 170.396C1693.92 172.123 1692.95 174.466 1692.95 176.908C1692.95 179.35 1693.92 181.693 1695.65 183.42L1714.07 201.841Z" fill="white"/>
<path d="M1736.76 222.684C1739.13 223.277 1741.64 222.905 1743.74 221.65C1745.83 220.394 1747.34 218.357 1747.94 215.988L1766.36 142.304C1766.95 139.935 1766.58 137.427 1765.32 135.333C1764.06 133.238 1762.03 131.729 1759.66 131.137C1757.29 130.544 1754.78 130.918 1752.68 132.174C1750.59 133.431 1749.08 135.468 1748.49 137.837L1730.07 211.521C1729.48 213.889 1729.85 216.395 1731.11 218.488C1732.36 220.581 1734.4 222.09 1736.76 222.684Z" fill="white"/>
<path d="M1769.33 201.841C1770.19 202.699 1771.2 203.38 1772.32 203.845C1773.44 204.31 1774.63 204.549 1775.84 204.549C1777.05 204.549 1778.25 204.31 1779.37 203.845C1780.49 203.38 1781.5 202.699 1782.36 201.841L1800.78 183.42C1802.5 181.693 1803.47 179.35 1803.47 176.908C1803.47 174.466 1802.5 172.123 1800.78 170.396L1782.36 151.975C1781.5 151.12 1780.49 150.442 1779.37 149.979C1778.25 149.516 1777.05 149.278 1775.84 149.278C1774.63 149.278 1773.44 149.516 1772.32 149.979C1771.2 150.442 1770.19 151.12 1769.33 151.975C1768.48 152.83 1767.8 153.846 1767.34 154.963C1766.87 156.08 1766.63 157.278 1766.63 158.487C1766.63 159.696 1766.87 160.894 1767.34 162.011C1767.8 163.129 1768.48 164.144 1769.33 164.999L1781.24 176.908L1769.33 188.817C1767.61 190.544 1766.64 192.887 1766.64 195.329C1766.64 197.771 1767.61 200.113 1769.33 201.841Z" fill="white"/>
</g>
</g>
</g>
</g>
</g>
</g>
<defs>
<clipPath id="clip0_520_1412">
<rect width="2000" height="429" fill="white"/>
</clipPath>
<clipPath id="clip1_520_1412">
<rect width="2000" height="429" fill="white" transform="translate(-1.21213 1.57498)"/>
</clipPath>
<clipPath id="clip2_520_1412">
<rect width="1996.21" height="423.68" fill="white" transform="translate(0.681458 1.90976)"/>
</clipPath>
<clipPath id="clip3_520_1412">
<rect width="1996.21" height="423.68" fill="white" transform="translate(0.681458 1.90976)"/>
</clipPath>
<clipPath id="clip4_520_1412">
<rect width="1326.45" height="306.57" fill="white" transform="translate(0.681458 60.4647)"/>
</clipPath>
<clipPath id="clip5_520_1412">
<rect width="1326.45" height="306.57" fill="white" transform="translate(0.681458 60.4647)"/>
</clipPath>
<clipPath id="clip6_520_1412">
<rect width="1326.45" height="306.57" fill="white" transform="translate(0.681458 60.4647)"/>
</clipPath>
<clipPath id="clip7_520_1412">
<rect width="1326.45" height="306.57" fill="white" transform="translate(0.681458 60.4647)"/>
</clipPath>
<clipPath id="clip8_520_1412">
<rect width="497.363" height="423.68" fill="white" transform="translate(1499.53 1.90976)"/>
</clipPath>
<clipPath id="clip9_520_1412">
<rect width="497.363" height="423.68" fill="white" transform="translate(1499.53 1.90976)"/>
</clipPath>
</defs>
</svg>
