<svg xmlns="http://www.w3.org/2000/svg" version="1.1" xmlns:xlink="http://www.w3.org/1999/xlink" xmlns:svgjs="http://svgjs.dev/svgjs" width="1500" height="1500" viewBox="0 0 1500 1500"><rect width="1500" height="1500" fill="#000000"></rect><g transform="matrix(0.6666666666666666,0,0,0.6666666666666666,249.39393939393938,642.8329954995372)"><svg viewBox="0 0 396 85" data-background-color="#ffffff" preserveAspectRatio="xMidYMid meet" height="321" width="1500" xmlns="http://www.w3.org/2000/svg" xmlns:xlink="http://www.w3.org/1999/xlink"><g id="tight-bounds" transform="matrix(1,0,0,1,0.2400000000000091,0.06633356326793205)"><svg viewBox="0 0 395.52 83.9458931852759" height="83.9458931852759" width="395.52"><g><svg viewBox="0 0 595.2272082456914 126.33211884193666" height="83.9458931852759" width="395.52"><g><rect width="8.243676448561862" height="109.6950380682518" x="417.10030483916717" y="8.318540386842429" fill="#ffffff" opacity="1" stroke-width="0" stroke="transparent" fill-opacity="1" class="rect-yte-0" data-fill-palette-color="primary" rx="1%" id="yte-0" data-palette-color="#6f605b"></rect></g><g transform="matrix(1,0,0,1,0,17.459793559196747)"><svg viewBox="0 0 395.52 91.41253172354317" height="91.41253172354317" width="395.52"><g id="textblocktransform"><svg viewBox="0 0 395.52 91.41253172354317" height="91.41253172354317" width="395.52" id="textblock"><g><svg viewBox="0 0 395.52 91.41253172354317" height="91.41253172354317" width="395.52"><g transform="matrix(1,0,0,1,0,0)"><svg width="395.52" viewBox="3.08 -37.55 198.14999999999998 45.8" height="91.41253172354317" data-palette-color="#6f605b"><path d="M9.42-37.55L9.42-31.81 3.08-31.81 3.08-37.55 9.42-37.55ZM9.42-26.39L9.42 0 3.08 0 3.08-26.39 9.42-26.39ZM39.06-17.5L39.06 0 32.71 0 32.71-17.5Q32.71-18.75 32.05-19.4 31.39-20.04 30.1-20.04L30.1-20.04 21.85-20.04 21.85 0 15.5 0 15.5-23.24Q15.5-23.9 15.74-24.48 15.99-25.05 16.43-25.48 16.87-25.9 17.45-26.15 18.04-26.39 18.7-26.39L18.7-26.39 30.15-26.39Q31.47-26.39 32.98-25.93 34.49-25.46 35.86-24.44L35.86-24.44 35.86-26.39 44.46-26.39Q45.36-26.39 46.36-26.18 47.36-25.98 48.35-25.54 49.34-25.1 50.24-24.4 51.14-23.71 51.83-22.72 52.51-21.73 52.93-20.43 53.34-19.14 53.34-17.5L53.34-17.5 53.34 0 46.99 0 46.99-17.5Q46.99-18.75 46.37-19.4 45.75-20.04 44.46-20.04L44.46-20.04 38.74-20.04Q39.06-18.87 39.06-17.5L39.06-17.5ZM88.13-37.55L88.13-8.91Q88.13-7.28 87.71-5.97 87.3-4.66 86.62-3.67 85.93-2.69 85.03-1.99 84.13-1.29 83.14-0.85 82.15-0.42 81.14-0.21 80.12 0 79.22 0L79.22 0 67.77 0Q66.13 0 64.84-0.42 63.54-0.83 62.56-1.53 61.57-2.22 60.87-3.13 60.18-4.03 59.74-5.02 59.3-6.01 59.09-7.02 58.88-8.03 58.88-8.91L58.88-8.91 58.88-17.5Q58.88-19.95 59.77-21.64 60.66-23.34 61.99-24.4 63.33-25.46 64.89-25.93 66.45-26.39 67.77-26.39L67.77-26.39 79.22-26.39 79.22-20.04 67.82-20.04Q66.55-20.04 65.89-19.4 65.23-18.75 65.23-17.5L65.23-17.5 65.23-8.96Q65.23-7.67 65.88-7.01 66.52-6.35 67.77-6.35L67.77-6.35 79.22-6.35Q80.51-6.35 81.15-7.01 81.78-7.67 81.78-8.91L81.78-8.91 81.78-37.55 88.13-37.55ZM118.94-26.39L125.68-26.39Q124.6-23.05 123.16-19.8 121.72-16.55 119.85-13.61 117.99-10.67 115.68-8.17 113.37-5.66 110.58-3.85 107.78-2.03 104.5-0.99 101.21 0.05 97.38 0.05L97.38 0.05Q96.72 0.05 96.14-0.2 95.55-0.44 95.11-0.87 94.67-1.29 94.43-1.87 94.18-2.44 94.18-3.1L94.18-3.1 94.18-26.39 100.53-26.39 100.53-6.54Q102.85-6.54 104.99-7.54 107.12-8.54 109.03-10.19 110.93-11.84 112.55-13.94 114.18-16.04 115.45-18.25 116.72-20.46 117.61-22.58 118.5-24.71 118.94-26.39L118.94-26.39ZM139.54-6.35L139.54 0 136.71 0Q135.34 0 133.79-0.46 132.24-0.93 130.9-1.99 129.56-3.05 128.68-4.75 127.8-6.45 127.8-8.91L127.8-8.91 127.8-37.55 134.15-37.55 134.15-8.91Q134.15-7.74 134.88-7.04 135.61-6.35 136.71-6.35L136.71-6.35 139.54-6.35ZM172.72-17.5L172.72-8.91Q172.72-7.28 172.3-5.97 171.89-4.66 171.2-3.67 170.52-2.69 169.62-1.99 168.71-1.29 167.72-0.85 166.74-0.42 165.73-0.21 164.73 0 163.83 0L163.83 0 152.38 0 152.38-6.35 163.83-6.35Q165.1-6.35 165.73-7.01 166.37-7.67 166.37-8.91L166.37-8.91 166.37-17.46Q166.37-18.77 165.72-19.41 165.08-20.04 163.83-20.04L163.83-20.04 152.43-20.04Q151.13-20.04 150.48-19.4 149.82-18.75 149.82-17.5L149.82-17.5 149.82 8.25 143.47 8.25 143.47-17.5Q143.47-19.14 143.88-20.43 144.3-21.73 144.99-22.72 145.69-23.71 146.59-24.4 147.5-25.1 148.49-25.54 149.47-25.98 150.49-26.18 151.5-26.39 152.38-26.39L152.38-26.39 163.83-26.39Q165.47-26.39 166.76-25.98 168.05-25.56 169.04-24.88 170.03-24.19 170.73-23.29 171.42-22.39 171.86-21.4 172.3-20.41 172.51-19.41 172.72-18.41 172.72-17.5L172.72-17.5ZM201.23-26.39L201.23-20.04 186.95-20.04Q185.65-20.04 184.99-19.4 184.34-18.75 184.34-17.5L184.34-17.5 184.34 0 177.99 0 177.99-17.5Q177.99-19.14 178.4-20.43 178.82-21.73 179.51-22.72 180.21-23.71 181.11-24.4 182.02-25.1 183.01-25.54 183.99-25.98 185.01-26.18 186.02-26.39 186.9-26.39L186.9-26.39 201.23-26.39Z" opacity="1" transform="matrix(1,0,0,1,0,0)" fill="#ffffff" class="wordmark-text-0" data-fill-palette-color="primary" id="text-0"></path></svg></g></svg></g></svg></g></svg></g><g transform="matrix(1,0,0,1,446.9242861268962,0)"><svg viewBox="0 0 148.3029221187952 126.33211884193666" height="126.33211884193666" width="148.3029221187952"><g><svg xmlns:x="http://ns.adobe.com/Extensibility/1.0/" xmlns:i="http://ns.adobe.com/AdobeIllustrator/10.0/" xmlns:graph="http://ns.adobe.com/Graphs/1.0/" xmlns="http://www.w3.org/2000/svg" xmlns:xlink="http://www.w3.org/1999/xlink" version="1.1" x="0" y="0" viewBox="5 9 54 46" enable-background="new 0 0 64 64" xml:space="preserve" height="126.33211884193666" width="148.3029221187952" class="icon-icon-0" data-fill-palette-color="accent" id="icon-0"><g fill="#f36527" data-fill-palette-color="accent"><g fill="#f36527" data-fill-palette-color="accent"><path d="M58 9H6A1 1 0 0 0 5 10V46A1 1 0 0 0 6 47H31V53H22A1 1 0 1 0 22 55H42A1 1 0 1 0 42 53H33V47H58A1 1 0 0 0 59 46V10A1 1 0 0 0 58 9M57 45H7V11H57z" fill="#ffffff" data-fill-palette-color="accent"></path><path d="M28.293 30.707A0.997 0.997 0 0 0 29.707 30.707 1 1 0 0 0 29.707 29.293L28.414 28 29.707 26.707A0.999 0.999 0 1 0 28.293 25.293L26.293 27.293A1 1 0 0 0 26.293 28.707z" fill="#ffffff" data-fill-palette-color="accent"></path><path d="M30.757 32.97A1 1 0 0 0 31.97 32.243L33.97 24.243A0.999 0.999 0 1 0 32.03 23.758L30.03 31.758A1 1 0 0 0 30.757 32.97" fill="#ffffff" data-fill-palette-color="accent"></path><path d="M34.293 30.707A0.997 0.997 0 0 0 35.707 30.707L37.707 28.707A1 1 0 0 0 37.707 27.293L35.707 25.293A0.999 0.999 0 1 0 34.293 26.707L35.586 28 34.293 29.293A1 1 0 0 0 34.293 30.707" fill="#ffffff" data-fill-palette-color="accent"></path></g></g></svg><g></g></g></svg></g></svg></g><defs></defs></svg><rect width="395.52" height="83.9458931852759" fill="none" stroke="none" visibility="hidden"></rect></g></svg></g></svg>